/* XPM */
static char * workbench16_xpm[] = {
"16 16 124 2",
"  	c #3B517C",
". 	c #394D76",
"+ 	c #455E90",
"@ 	c #3B507A",
"# 	c #3F5684",
"$ 	c #4F6CA6",
"% 	c #5270AB",
"& 	c #384C75",
"* 	c #354970",
"= 	c #273552",
"- 	c #283755",
"; 	c #25324C",
"> 	c #1B253A",
", 	c #394E78",
"' 	c #3F5582",
") 	c #4A659B",
"! 	c #4B669C",
"~ 	c #728ABB",
"{ 	c #466093",
"] 	c #202C43",
"^ 	c #2A3A59",
"/ 	c #293856",
"( 	c #324467",
"_ 	c #2C3C5B",
": 	c #212D44",
"< 	c #2C3C5D",
"[ 	c #33456A",
"} 	c #435B8C",
"| 	c #415887",
"1 	c #314366",
"2 	c #3C527D",
"3 	c #425A8B",
"4 	c #364A71",
"5 	c #26344F",
"6 	c #263451",
"7 	c #5F7BB2",
"8 	c #7189BA",
"9 	c #8298C3",
"0 	c #768EBD",
"a 	c #7C92BF",
"b 	c #4D69A0",
"c 	c #5673AD",
"d 	c #1F2B42",
"e 	c #506DA7",
"f 	c #738BBC",
"g 	c #94A6CB",
"h 	c #9CADCF",
"i 	c #98AACD",
"j 	c #8A9EC7",
"k 	c #C7D1E4",
"l 	c #95A7CC",
"m 	c #374B72",
"n 	c #35486E",
"o 	c #4C689F",
"p 	c #111724",
"q 	c #4C679D",
"r 	c #8499C3",
"s 	c #C6D0E3",
"t 	c #B6C2DB",
"u 	c #516EA8",
"v 	c #5875AF",
"w 	c #778FBE",
"x 	c #889CC5",
"y 	c #91A4CA",
"z 	c #6A84B7",
"A 	c #4A6499",
"B 	c #161E2F",
"C 	c #1C263B",
"D 	c #25334E",
"E 	c #2F4062",
"F 	c #516FAA",
"G 	c #8DA1C8",
"H 	c #A0B0D1",
"I 	c #ACBAD7",
"J 	c #A7B6D4",
"K 	c #A8B7D5",
"L 	c #5D78B1",
"M 	c #6E87B9",
"N 	c #34476D",
"O 	c #3D5380",
"P 	c #1D283E",
"Q 	c #445D8F",
"R 	c #151D2C",
"S 	c #5E7AB1",
"T 	c #3E5481",
"U 	c #405785",
"V 	c #1D273C",
"W 	c #232F48",
"X 	c #425A89",
"Y 	c #2E3F61",
"Z 	c #222E47",
"` 	c #1B2538",
" .	c #192234",
"..	c #131A28",
"+.	c #24314B",
"@.	c #2B3B5A",
"#.	c #33466C",
"$.	c #374B74",
"%.	c #161E2D",
"&.	c #2A3957",
"*.	c #2D3D5E",
"=.	c #182133",
"-.	c #7990BE",
";.	c #0C111B",
">.	c #23304A",
",.	c #1F2A40",
"'.	c #171F30",
").	c #304265",
"!.	c #657FB4",
"~.	c #869BC5",
"{.	c #6D86B8",
"].	c #121825",
"^.	c #6983B6",
"/.	c #90A3C9",
"(.	c #5472AD",
"_.	c #324469",
":.	c #6680B5",
"<.	c #5B77B0",
"[.	c #6B85B8",
"}.	c #627DB3",
"|.	c #7D93C0",
"1.	c #4E6AA3",
"2.	c #445C8D",
"3.	c #486297",
"  . + @ # $ % & * = - ; > > , . ",
"' ) ! ~ ~ { ] ^ / ( & ; _ ^ : < ",
"[ . } | 1 - 2 , [ 3 4 5 ; ] - 6 ",
"& 7 8 9 0 a b < ! c _ - - = = d ",
"' e f g h i j k l 8 ' m , n o b ",
"5 p 1 q r k s t + u v w j x y z ",
"A p B C D < E F G H I J K L M l ",
"u N ' O * P Q B R 1 ! S T % u U ",
"f V W < ' X Y Z < `  ...6 1 N n ",
"g ^ +.= @.5 #.$.Z P V P P %.+.&.",
"% ! A ( 5 *.W =.] 5 d Z +.- ] _ ",
"g -.! ' ' *.+.;.>.=.,.5 +.  '.).",
"!.~.j {.Q # *.* ; ].: ; C / d c ",
"0 f ~ ^./.(.+ [ < +.,.+._.A ! N ",
":.7 ^.u u <.x S $.3 m + c % $ , ",
"[.}.}.|.v v 1.7 r 2.3.x |.8 }.v "};
